<?xml version="1.0" encoding="utf-8"?>
<!-- Generator: Adobe Illustrator 18.1.0, SVG Export Plug-In . SVG Version: 6.00 Build 0)  -->
<!DOCTYPE svg PUBLIC "-//W3C//DTD SVG 1.1//EN" "http://www.w3.org/Graphics/SVG/1.1/DTD/svg11.dtd">
<svg version="1.1" id="Layer_1" xmlns="http://www.w3.org/2000/svg" xmlns:xlink="http://www.w3.org/1999/xlink" x="0px" y="0px"
	 viewBox="0 0 173 37" enable-background="new 0 0 173 37" xml:space="preserve">
<g>
	<g>
		<g>
			<polygon fill="#719DB5" points="23.6,11.2 29.9,11.5 29.9,4.3 23.6,3.6 			"/>
			<polygon fill="#719DB5" points="23.6,19.2 23.6,27.3 16.4,27.7 16.4,19.3 8.2,19.3 8.2,10.4 16.4,10.8 16.4,2.8 1.5,1.2 
				1.5,35.8 29.9,32.7 29.9,19.2 			"/>
		</g>
		<polygon fill="#8F8F92" points="23.6,19.2 16.4,19.3 16.4,10.8 23.6,11.2 		"/>
	</g>
	<g>
		<g>
			<path fill="#808384" d="M43.2,23.4L40.5,32h-3.4l8.6-27.4h3.9L58.3,32h-3.5l-2.7-8.6H43.2z M51.5,20.7L49,12.8
				c-0.6-1.8-0.9-3.4-1.3-5h-0.1c-0.4,1.6-0.7,3.3-1.3,5l-2.5,7.9H51.5z"/>
			<path fill="#808384" d="M63.4,12.4l2.6,4.2c0.7,1.1,1.3,2.1,1.9,3.2H68c0.6-1.1,1.2-2.2,1.8-3.2l2.5-4.2h3.6l-6.2,9.5L76.1,32
				h-3.7l-2.7-4.4c-0.7-1.1-1.3-2.2-1.9-3.4h-0.1c-0.6,1.2-1.2,2.2-1.9,3.4L63.1,32h-3.6l6.4-10l-6.1-9.6H63.4z"/>
			<path fill="#808384" d="M80.8,9.1 M80.9,4.6 M79.3,32V12.4h3.3V32H79.3z"/>
			<path fill="#808384" d="M100.8,27.3c0,1.7,0.1,3.4,0.3,4.7h-3l-0.3-2.5h-0.1c-1,1.5-3,2.9-5.5,2.9c-3.7,0-5.5-2.8-5.5-5.6
				c0-4.7,3.9-7.3,10.9-7.3v-0.4c0-1.6-0.4-4.5-4.1-4.5c-1.7,0-3.5,0.5-4.8,1.5l-0.7-2.4c1.5-1,3.7-1.7,6-1.7c5.5,0,6.9,4.1,6.9,8
				V27.3z M97.6,22c-3.6-0.1-7.7,0.6-7.7,4.4c0,2.4,1.4,3.4,3.1,3.4c2.4,0,3.9-1.6,4.5-3.3c0.1-0.4,0.1-0.8,0.1-1.1V22z"/>
			<path fill="#808384" d="M127.5,20c-0.2-3.8-0.4-8.4-0.4-11.8H127c-0.9,3.2-1.9,6.6-3.2,10.4l-4.5,13.3h-2.5l-4.1-13
				c-1.2-3.9-2.2-7.4-2.9-10.6h-0.1c-0.1,3.4-0.3,8-0.5,12.1L108.6,32h-3.1l1.8-27.4h4.2l4.3,13.2c1,3.4,1.9,6.4,2.5,9.2h0.1
				c0.7-2.8,1.6-5.8,2.7-9.2l4.5-13.2h4.2l1.6,27.4h-3.2L127.5,20z"/>
			<path fill="#808384" d="M138.2,22.9c0.1,4.8,2.9,6.8,6.2,6.8c2.4,0,3.8-0.4,5-1l0.6,2.6c-1.2,0.6-3.2,1.3-6.1,1.3
				c-5.6,0-8.9-4-8.9-9.9s3.2-10.6,8.5-10.6c6,0,7.5,5.6,7.5,9.2c0,0.7,0,1.3-0.1,1.7H138.2z M147.9,20.3c0-2.2-0.9-5.8-4.6-5.8
				c-3.4,0-4.8,3.3-5.1,5.8H147.9z"/>
			<path fill="#808384" d="M170.8,3.2V27c0,1.7,0.1,3.7,0.1,5.1H168l-0.1-3.4h-0.1c-1,2.2-3.1,3.9-6.1,3.9c-4.4,0-7.8-4-7.8-10
				c0-6.5,3.7-10.5,8.1-10.5c2.8,0,4.6,1.4,5.5,3h0.1V3.2H170.8z M167.5,20.4c0-0.4,0-1.1-0.2-1.5c-0.5-2.2-2.3-4.1-4.8-4.1
				c-3.4,0-5.4,3.2-5.4,7.5c0,4,1.8,7.3,5.4,7.3c2.2,0,4.2-1.6,4.8-4.3c0.1-0.5,0.2-1,0.2-1.5V20.4z"/>
		</g>
	</g>
	<rect x="79.2" y="4.7" fill="#808384" width="3.3" height="4"/>
</g>
</svg>
